<?xml version="1.0" encoding="iso-8859-1"?>
<!-- Generator: Adobe Illustrator 19.0.0, SVG Export Plug-In . SVG Version: 6.00 Build 0)  -->
<svg version="1.1" id="Capa_1" xmlns="http://www.w3.org/2000/svg" xmlns:xlink="http://www.w3.org/1999/xlink" x="0px" y="0px"
	 viewBox="0 0 512 512" style="enable-background:new 0 0 512 512;" xml:space="preserve">
<polygon style="fill:#FFA230;" points="230.4,8.533 230.4,315.733 349.867,315.733 503.467,315.733 503.467,8.533 "/>
<polygon style="fill:#FA962A;" points="230.4,315.733 230.4,315.733 349.867,315.733 503.467,315.733 503.467,123.477 "/>
<polygon style="fill:#FFA230;" points="230.4,8.533 230.4,315.733 349.867,315.733 503.467,315.733 503.467,8.533 "/>
<g>
	<rect x="460.8" y="273.067" style="fill:#126099;" width="17.067" height="17.067"/>
	<rect x="426.667" y="273.067" style="fill:#126099;" width="17.067" height="17.067"/>
</g>
<rect x="230.4" y="8.533" style="fill:#FDB62F;" width="273.067" height="93.867"/>
<rect x="332.8" y="8.533" style="fill:#FD7B2F;" width="68.267" height="145.067"/>
<rect x="332.8" y="102.4" style="fill:#F46B27;" width="68.267" height="51.2"/>
<path style="fill:#DE4C3C;" d="M298.667,366.933v110.933c0,14.14-11.46,25.6-25.6,25.6l0,0H34.133c-14.14,0-25.6-11.46-25.6-25.6
	l0,0V162.133c0-14.14,11.46-25.6,25.6-25.6h238.933c14.14,0,25.6,11.46,25.6,25.6v153.6"/>
<path style="fill:#CF4737;" d="M8.533,464.128v13.739c0,14.14,11.46,25.6,25.6,25.6l0,0h238.933c14.14,0,25.6-11.46,25.6-25.6l0,0
	V238.933L8.533,464.128z"/>
<rect x="42.667" y="170.667" style="fill:#E5E5E5;" width="221.867" height="298.667"/>
<path style="fill:#FDB62F;" d="M179.2,136.533v-17.067c0-14.14-11.46-25.6-25.6-25.6c-14.14,0-25.6,11.46-25.6,25.6v17.067H93.867
	L76.8,196.267h153.6l-17.067-59.733H179.2z"/>
<polygon style="fill:#FFA230;" points="84.139,170.667 76.8,196.267 230.4,196.267 223.061,170.667 "/>
<polygon style="fill:#D9D9D9;" points="42.667,436.565 42.667,469.333 264.533,469.333 264.533,264.533 "/>
<rect x="119.467" y="247.467" style="fill:#CFCFCF;" width="110.933" height="17.067"/>
<rect x="68.248" y="238.892" transform="matrix(-0.6001 0.7999 -0.7999 -0.6001 341.2588 324.251)" style="fill:#4398D1;" width="42.666" height="17.066"/>
<rect x="119.467" y="298.667" style="fill:#CFCFCF;" width="110.933" height="17.067"/>
<rect x="68.25" y="290.094" transform="matrix(-0.6001 0.7999 -0.7999 -0.6001 382.2186 406.1782)" style="fill:#4398D1;" width="42.666" height="17.066"/>
<g>
	<rect x="119.467" y="349.867" style="fill:#CFCFCF;" width="110.933" height="17.067"/>
	<rect x="119.467" y="401.067" style="fill:#CFCFCF;" width="85.333" height="17.067"/>
</g>
<g>
	
		<rect x="68.239" y="341.297" transform="matrix(-0.6001 0.7999 -0.7999 -0.6001 423.1606 488.1176)" style="fill:#4398D1;" width="42.666" height="17.066"/>
	
		<rect x="68.233" y="392.508" transform="matrix(-0.6001 0.7999 -0.7999 -0.6001 464.1136 570.0651)" style="fill:#4398D1;" width="42.666" height="17.066"/>
	<polygon style="fill:#4398D1;" points="358.4,256 204.8,409.6 204.8,435.2 230.4,435.2 384,281.6 	"/>
</g>
<rect x="340.313" y="263.446" transform="matrix(-0.7071 0.7071 -0.7071 -0.7071 810.909 227.1836)" style="fill:#3E8CC7;" width="36.181" height="36.181"/>
<rect x="119.467" y="247.467" width="110.933" height="17.067"/>
<rect x="68.248" y="238.892" transform="matrix(-0.6001 0.7999 -0.7999 -0.6001 341.2588 324.251)" width="42.666" height="17.066"/>
<rect x="119.467" y="298.667" width="110.933" height="17.067"/>
<rect x="68.25" y="290.094" transform="matrix(-0.6001 0.7999 -0.7999 -0.6001 382.2186 406.1782)" width="42.666" height="17.066"/>
<rect x="119.467" y="349.867" width="110.933" height="17.067"/>
<rect x="68.239" y="341.297" transform="matrix(-0.6001 0.7999 -0.7999 -0.6001 423.1606 488.1176)" width="42.666" height="17.066"/>
<rect x="68.233" y="392.508" transform="matrix(-0.6001 0.7999 -0.7999 -0.6001 464.1136 570.0651)" width="42.666" height="17.066"/>
<path d="M503.467,0H230.4c-4.71,0-8.533,3.823-8.533,8.533V128h-34.133v-8.533c0-18.85-15.283-34.133-34.133-34.133
	s-34.133,15.283-34.133,34.133V128H34.133C15.283,128,0,143.283,0,162.133v315.733C0,496.717,15.283,512,34.133,512h238.933
	c18.85,0,34.133-15.283,34.133-34.133V370.432l46.165-46.165h150.101c4.71,0,8.533-3.823,8.533-8.533V8.533
	C512,3.823,508.177,0,503.467,0z M494.933,93.867H409.6v-76.8h85.333V93.867z M392.533,17.067v76.8h-51.2v-76.8H392.533z
	 M341.333,110.933h51.2v34.133h-51.2V110.933z M324.267,17.067v76.8h-85.333v-76.8H324.267z M358.4,295.168L344.832,281.6
	l13.568-13.568l13.568,13.568L358.4,295.168z M332.8,293.632l13.568,13.568L226.901,426.667h-13.568v-13.568L332.8,293.632z
	 M69.973,201.387c1.613,2.15,4.139,3.413,6.827,3.413h153.6c2.688,0,5.214-1.263,6.827-3.413c1.587-2.125,2.091-4.873,1.365-7.424
	l-4.181-14.763H256v167.168l-54.699,54.699h-81.835v17.067h76.8V435.2c0,4.71,3.823,8.533,8.533,8.533h25.6
	c2.27,0.017,4.446-0.879,6.059-2.475L256,421.632V460.8H51.2V179.2h21.589l-4.523,14.763
	C67.635,196.565,68.267,199.313,69.973,201.387z M290.133,312.32l-17.067,17.067v-158.72c0-4.71-3.823-8.533-8.533-8.533h-34.987
	l-4.864-17.067h48.384c9.429,0,17.067,7.637,17.067,17.067V312.32z M128,145.067c4.71,0,8.533-3.823,8.533-8.533v-17.067
	c0-9.429,7.637-17.067,17.067-17.067c9.429,0,17.067,7.637,17.067,17.067v17.067c0,4.71,3.823,8.533,8.533,8.533h27.733
	l12.117,42.667H88.149l12.117-42.667H128z M290.133,477.867c0,9.429-7.637,17.067-17.067,17.067H34.133
	c-9.429,0-17.067-7.637-17.067-17.067V162.133c0-9.429,7.637-17.067,17.067-17.067h48.384l-4.864,17.067H42.667
	c-4.71,0-8.533,3.823-8.533,8.533v298.667c0,4.71,3.823,8.533,8.533,8.533h221.867c4.71,0,8.533-3.823,8.533-8.533v-64.768
	l17.067-17.067V477.867z M370.432,307.2l19.627-19.541c3.345-3.319,3.371-8.721,0.051-12.066c-0.017-0.017-0.034-0.034-0.051-0.051
	l-25.6-25.6c-3.319-3.345-8.721-3.371-12.066-0.051c-0.017,0.017-0.034,0.034-0.051,0.051L307.2,295.168V162.133
	c0-18.85-15.283-34.133-34.133-34.133h-34.133v-17.067h85.333V153.6c0,4.71,3.823,8.533,8.533,8.533h68.267
	c4.71,0,8.533-3.823,8.533-8.533v-42.667h85.333V307.2H370.432z"/>
<rect x="460.8" y="273.067" width="17.067" height="17.067"/>
<rect x="426.667" y="273.067" width="17.067" height="17.067"/>
<g>
</g>
<g>
</g>
<g>
</g>
<g>
</g>
<g>
</g>
<g>
</g>
<g>
</g>
<g>
</g>
<g>
</g>
<g>
</g>
<g>
</g>
<g>
</g>
<g>
</g>
<g>
</g>
<g>
</g>
</svg>
