<svg height="512" viewBox="0 0 512 512" width="512" xmlns="http://www.w3.org/2000/svg"><g id="filled_outline" data-name="filled outline"><path d="m336 112a8 8 0 0 1 -8-8 74.5 74.5 0 0 1 51.008-70.768l2.462-.821a8 8 0 1 1 5.06 15.178l-2.463.822a58.521 58.521 0 0 0 -40.067 55.589 8 8 0 0 1 -8 8z" fill="#027e2a"/><path d="m141.435 256.972-110.269 111.028 120 120 110.269-119.028z" fill="#fdc9a6"/><path d="m143.166 376a8 8 0 0 1 -5.636-13.678l36.848-36.579a8 8 0 1 1 11.272 11.357l-36.85 36.578a7.979 7.979 0 0 1 -5.634 2.322z" fill="#f6bb92"/><path d="m176 208v16l-36.289 35.986 121.744 110.9 66.545-66.886a57.94 57.94 0 0 0 40.971-16.971l7.029-7.029v-56z" fill="#0bafea"/><path d="m137.406 256h-.676a16.73 16.73 0 0 0 -16.73 16.73 16.73 16.73 0 0 0 5.315 12.23l109.864 102.54a16.732 16.732 0 0 0 11.415 4.5h.676a16.73 16.73 0 0 0 16.73-16.73 16.73 16.73 0 0 0 -5.315-12.23l-109.864-102.54a16.732 16.732 0 0 0 -11.415-4.5z" fill="#0cbfff"/><g fill="#8feaff"><path d="m448 40a8 8 0 0 1 -8-8v-8a8 8 0 0 1 16 0v8a8 8 0 0 1 -8 8z"/><path d="m448 80a8 8 0 0 1 -8-8v-8a8 8 0 0 1 16 0v8a8 8 0 0 1 -8 8z"/><path d="m472 56h-8a8 8 0 0 1 0-16h8a8 8 0 0 1 0 16z"/><path d="m432 56h-8a8 8 0 0 1 0-16h8a8 8 0 0 1 0 16z"/><path d="m120 168a8 8 0 0 1 -8-8v-8a8 8 0 0 1 16 0v8a8 8 0 0 1 -8 8z"/><path d="m120 208a8 8 0 0 1 -8-8v-8a8 8 0 0 1 16 0v8a8 8 0 0 1 -8 8z"/><path d="m144 184h-8a8 8 0 0 1 0-16h8a8 8 0 0 1 0 16z"/><path d="m104 184h-8a8 8 0 0 1 0-16h8a8 8 0 0 1 0 16z"/></g><path d="m365.961 256a33.7 33.7 0 0 1 -23.833-9.872l-6.128-6.128-6.128 6.128a33.7 33.7 0 0 1 -23.833 9.872 33.7 33.7 0 0 1 -28.045-15.009l-19.036-28.554a108.6 108.6 0 0 1 -6.774-108.8 42.752 42.752 0 0 1 38.237-23.637 42.75 42.75 0 0 1 40.006 27.68 5.265 5.265 0 0 0 9.774.2l.757-1.79a42.751 42.751 0 0 1 39.369-26.09h1.252a42.752 42.752 0 0 1 38.237 23.632 108.6 108.6 0 0 1 -6.774 108.805l-19.036 28.554a33.7 33.7 0 0 1 -28.045 15.009z" fill="#e82f3e"/><path d="m176 224 56 48 21.485-17.188a41 41 0 0 0 14.91-38.247l-12.395-80.565 21.985-17.588a48 48 0 0 0 18.015-37.482 21.4 21.4 0 0 0 -30.091-19.556l-14.187 6.305a96.005 96.005 0 0 0 -43.33 38.334l-19.281 32.136a92 92 0 0 0 -13.111 47.334z" fill="#0bafea"/><rect fill="#0bafea" height="48" rx="24" width="96" x="384" y="152"/><rect fill="#0bafea" height="48" rx="24" width="96" x="392" y="104"/><rect fill="#0bafea" height="48" rx="24" width="96" x="376" y="200"/><rect fill="#0bafea" height="48" rx="24" width="96" x="360" y="248"/><path d="m146.343 493.657a8 8 0 0 0 5.657 2.343h.152a8 8 0 0 0 5.717-2.562l86.651-93.538c.688.057 1.378.1 2.075.1h.676a24.7 24.7 0 0 0 24.449-28.406l59.68-59.682a66.14 66.14 0 0 0 35.688-12.763 31.8 31.8 0 0 0 16.912 4.851h48a31.984 31.984 0 0 0 26.576-49.8 31.965 31.965 0 0 0 13.9-50.776 31.954 31.954 0 0 0 8-48 31.993 31.993 0 0 0 -16.476-59.424h-39.3a50.685 50.685 0 0 0 -43.123-24h-1.252a50.661 50.661 0 0 0 -32.825 12.032 58.513 58.513 0 0 1 36.568-35.621l2.463-.822a8 8 0 1 0 -5.06-15.178l-2.462.821a74.485 74.485 0 0 0 -49.709 56.932 50.791 50.791 0 0 0 -26.211-16.542 29.414 29.414 0 0 0 -40.427-19.559l-14.186 6.306a103.494 103.494 0 0 0 -46.945 41.531l-19.281 32.133a100.025 100.025 0 0 0 -14.25 51.449v35.205l-27.527 27.526a24.818 24.818 0 0 0 -3.068-.213h-.676a24.657 24.657 0 0 0 -24.517 27.884l-85.888 86.479a8 8 0 0 0 .019 11.294zm285.657-205.657h-48a16 16 0 0 1 0-32h48a16 16 0 0 1 0 32zm16-48h-48a16 16 0 0 1 0-32h48a16 16 0 0 1 0 32zm8-48h-48a16 16 0 0 1 0-32h48a16 16 0 0 1 0 32zm8-80a16 16 0 0 1 0 32h-48a16 16 0 0 1 0-32zm-160.8-21.55a34.782 34.782 0 0 1 19.741 20.05 13.2 13.2 0 0 0 12.145 8.586h.274a13.194 13.194 0 0 0 12.206-8.086l.759-1.791a34.687 34.687 0 0 1 32-21.2h1.252a34.694 34.694 0 0 1 24.088 9.722 31.964 31.964 0 0 0 -14.145 50.858 31.954 31.954 0 0 0 -8 48 31.963 31.963 0 0 0 -10.1 45.224 32.013 32.013 0 0 0 -10.344 6.012 25.725 25.725 0 0 1 -15.295-7.345l-6.128-6.128a8 8 0 0 0 -11.314 0l-6.127 6.128a25.706 25.706 0 0 1 -39.566-3.918l-7.833-11.75a48.659 48.659 0 0 0 -.515-9.455l-11.688-76.001 18.372-14.7a55.682 55.682 0 0 0 20.218-34.206zm-121.543 139.207a8 8 0 0 0 2.343-5.657v-38.518a84.016 84.016 0 0 1 11.971-43.217l19.28-32.135a87.565 87.565 0 0 1 39.72-35.14l14.186-6.3a13.4 13.4 0 0 1 18.843 12.24 39.8 39.8 0 0 1 -15.013 31.235l-21.987 17.588a8 8 0 0 0 -2.91 7.463l12.394 80.565a33.08 33.08 0 0 1 -12 30.784l-14.554 11.644a8 8 0 0 0 10 12.494l14.553-11.644a48.848 48.848 0 0 0 12.828-15.674l.029.043a41.705 41.705 0 0 0 64.191 6.357l.471-.472.472.472a41.754 41.754 0 0 0 17.1 10.327 31.915 31.915 0 0 0 2.4 25.309 50.064 50.064 0 0 1 -27.974 8.579 8 8 0 0 0 -5.657 2.343l-58.534 58.535-108.297-101.078zm-44.928 34.343h.676a8.7 8.7 0 0 1 5.953 2.345l109.876 102.555a8.729 8.729 0 0 1 -5.963 15.1h-.671a8.7 8.7 0 0 1 -5.957-2.348l-109.87-102.54a8.73 8.73 0 0 1 5.956-15.112zm-16.829 26.849 46.52 43.419-28.075 28.075a8 8 0 0 0 11.314 11.314l28.466-28.466 51.093 47.687-77.438 83.588-108.486-108.486z"/><path d="m448 40a8 8 0 0 0 8-8v-8a8 8 0 0 0 -16 0v8a8 8 0 0 0 8 8z"/><path d="m448 56a8 8 0 0 0 -8 8v8a8 8 0 0 0 16 0v-8a8 8 0 0 0 -8-8z"/><path d="m464 56h8a8 8 0 0 0 0-16h-8a8 8 0 0 0 0 16z"/><path d="m424 56h8a8 8 0 0 0 0-16h-8a8 8 0 0 0 0 16z"/><path d="m120 168a8 8 0 0 0 8-8v-8a8 8 0 0 0 -16 0v8a8 8 0 0 0 8 8z"/><path d="m120 184a8 8 0 0 0 -8 8v8a8 8 0 0 0 16 0v-8a8 8 0 0 0 -8-8z"/><path d="m136 184h8a8 8 0 0 0 0-16h-8a8 8 0 0 0 0 16z"/><path d="m96 184h8a8 8 0 0 0 0-16h-8a8 8 0 0 0 0 16z"/></g></svg>