<svg id="Capa_1" enable-background="new 0 0 512 512" height="512" viewBox="0 0 512 512" width="512" xmlns="http://www.w3.org/2000/svg"><g><path d="m499.866 295.176c-9.577-17.78-24.5-30.469-43.155-36.698-30.421-10.156-65.743-1.477-92.566 20.415.172-1.896.4-3.826.696-5.776 3.833-25.277 17.143-42.639 39.558-51.603l-11.139-27.855c-32.881 13.149-53.021 39.444-58.24 76.042-.27 1.892-.491 3.765-.671 5.612-18.883-13.874-41.353-21.478-63.184-21.04-6.323-7.138-13.301-13.696-20.817-19.559-11.346-8.851-17.853-22.044-17.853-36.199v-60.862c0-38.286-27.935-70.17-64.496-76.351-.483-10.806-3.352-24.976-13.195-37.183-12.903-16.004-33.618-24.119-61.567-24.119v30c18.324 0 31.141 4.308 38.096 12.803 4.877 5.957 6.402 13.396 6.719 19.293-34.559 7.765-60.456 38.694-60.456 75.557v60.429c0 14.27-6.539 27.859-17.491 36.351-18.633 14.447-33.957 33.237-44.317 54.339-10.886 22.172-16.189 46.033-15.764 70.921 1.441 84.378 70.803 152.311 155.035 152.307.632 0 1.273-.004 1.907-.012 31.568-.384 62.245-10.444 87.817-28.585 10.083 10.127 21.309 18.091 33.427 22.853 7.412 2.913 16.38 5.135 26.499 5.135 13.826 0 29.797-4.151 46.851-16.362 29.535 21.148 55.808 18.119 73.349 11.228 47.275-18.578 80.973-85.892 86.239-140.237 2.719-28.062-1.077-51.898-11.282-70.844zm-343.264 186.814c-.516.006-1.025.009-1.539.009-67.933 0-123.882-54.781-125.044-122.819-.68-39.804 16.986-76.631 48.467-101.04 18.227-14.132 29.11-36.584 29.11-60.06v-60.429c0-26.156 21.286-47.435 47.451-47.435s47.451 21.279 47.451 47.435v60.862c0 23.462 10.716 45.278 29.402 59.854 1.673 1.305 3.312 2.652 4.917 4.04-14.203 6.975-25.69 18.151-33.563 32.769-10.205 18.946-14.001 42.781-11.281 70.844 2.997 30.929 15.204 66.058 33.881 94.014-20.303 13.939-44.435 21.655-69.252 21.956zm324.687-118.863c-4.318 44.553-32.413 101.479-67.353 115.209-17.225 6.77-34.375 2.281-52.426-13.721l-9.95-8.822-9.95 8.822c-18.052 16.002-35.202 20.492-52.427 13.72-34.941-13.73-63.034-70.656-67.352-115.208-3.867-39.9 8.553-67.671 34.076-76.192 13.142-4.387 28.648-3.388 43.657 2.816 15.981 6.605 29.899 18.629 39.191 33.857l12.805 20.985 12.805-20.985c9.292-15.229 23.21-27.252 39.19-33.857 15.012-6.204 30.515-7.205 43.657-2.816 25.522 8.521 37.943 36.292 34.077 76.192z"/></g></svg>