<?xml version="1.0"?>
<svg xmlns="http://www.w3.org/2000/svg" xmlns:xlink="http://www.w3.org/1999/xlink" xmlns:svgjs="http://svgjs.com/svgjs" version="1.1" width="512" height="512" x="0" y="0" viewBox="0 0 512 512" style="enable-background:new 0 0 512 512" xml:space="preserve" class=""><g><g xmlns="http://www.w3.org/2000/svg"><path d="m486.515 333.628h-233.905c-4.945 0-8.954-4.009-8.954-8.954v-308.22c0-4.945 4.009-8.954 8.954-8.954h233.905c4.945 0 8.954 4.009 8.954 8.954v308.22c0 4.945-4.009 8.954-8.954 8.954z" fill="#f9f6f6" data-original="#f9f6f6" style="" class=""/><path d="m486.515 7.5h-20.948c4.945 0 8.954 4.009 8.954 8.954v308.219c0 4.945-4.009 8.954-8.954 8.954h20.948c4.945 0 8.954-4.009 8.954-8.954v-308.219c0-4.945-4.009-8.954-8.954-8.954z" fill="#e4e4e4" data-original="#dddaec" style="" class=""/><path d="m323.05 504.5h-295.324c-6.182 0-11.194-5.012-11.194-11.194v-275.325c0-6.182 5.012-11.194 11.194-11.194h295.324c6.182 0 11.194 5.012 11.194 11.194v275.325c0 6.182-5.011 11.194-11.194 11.194z" fill="#cea15c" data-original="#ffd064" style="" class=""/><path d="m300.466 206.787c6.081 0 11.011 4.93 11.011 11.011v286.702h11.573c6.182 0 11.194-5.012 11.194-11.194v-275.325c0-6.182-5.012-11.194-11.194-11.194z" fill="#ba965f" data-original="#ffc250" style="" class=""/><g><path d="m230.264 458.21-5.524-5.675 33.656-32.76-33.656-32.76 5.524-5.675c7.639-7.849 20.195-8.018 28.043-.379l29.496 28.71c1.529 1.489 2.774 3.268 3.504 5.273 1.94 5.328.493 11.044-3.339 14.774l-29.661 28.871c-7.849 7.639-20.404 7.47-28.043-.379z" fill="#f9f6f6" data-original="#f9f6f6" style="" class=""/></g><path d="m194.959 259.047h-39.141c-3.623 0-6.56-2.937-6.56-6.559v-45.701h52.26v45.701c0 3.623-2.937 6.559-6.559 6.559z" fill="#d22025" data-original="#26457d" style="" class=""/><path d="m182.465 206.787v45.701c0 3.623-2.937 6.559-6.559 6.559h19.053c3.623 0 6.559-2.937 6.559-6.559v-45.701z" fill="#b21116" data-original="#21386b" style="" class=""/><g><path d="m402.758 45.175h-122.245c-4.143 0-7.5 3.357-7.5 7.5s3.357 7.5 7.5 7.5h122.245c4.143 0 7.5-3.357 7.5-7.5s-3.358-7.5-7.5-7.5z" fill="#000000" data-original="#000000" style="" class=""/><path d="m439.173 70.657c2.087 0 4.08-.87 5.499-2.4l19.439-20.964c2.816-3.037 2.638-7.782-.399-10.599s-7.783-2.639-10.599.399l-13.94 15.033-5.192-5.599c-2.815-3.036-7.562-3.217-10.599-.399-3.037 2.816-3.216 7.562-.399 10.599l10.691 11.529c1.419 1.531 3.412 2.401 5.499 2.401z" fill="#000000" data-original="#000000" style="" class=""/><path d="m402.758 123.768h-122.245c-4.143 0-7.5 3.357-7.5 7.5s3.357 7.5 7.5 7.5h122.245c4.143 0 7.5-3.357 7.5-7.5s-3.358-7.5-7.5-7.5z" fill="#000000" data-original="#000000" style="" class=""/><path d="m422.982 135.319 10.691 11.529c1.419 1.53 3.412 2.4 5.499 2.4s4.08-.87 5.499-2.4l19.439-20.963c2.816-3.037 2.638-7.782-.399-10.599s-7.783-2.639-10.599.399l-13.94 15.032-5.192-5.599c-2.815-3.036-7.562-3.217-10.599-.399-3.036 2.818-3.215 7.563-.399 10.6z" fill="#000000" data-original="#000000" style="" class=""/><path d="m422.982 213.912 10.691 11.529c1.419 1.53 3.412 2.4 5.499 2.4s4.08-.87 5.499-2.4l19.439-20.964c2.816-3.037 2.638-7.782-.399-10.599s-7.783-2.639-10.599.399l-13.94 15.033-5.192-5.599c-2.815-3.037-7.562-3.217-10.599-.399-3.036 2.818-3.215 7.563-.399 10.6z" fill="#000000" data-original="#000000" style="" class=""/><path d="m422.981 292.504 10.691 11.53c1.42 1.53 3.412 2.4 5.5 2.4 2.087 0 4.08-.87 5.499-2.4l19.439-20.964c2.816-3.037 2.638-7.782-.399-10.599s-7.783-2.64-10.599.399l-13.94 15.033-5.191-5.6c-2.817-3.037-7.562-3.216-10.6-.4-3.036 2.818-3.216 7.564-.4 10.601z" fill="#000000" data-original="#000000" style="" class=""/><path d="m78.022 446.723c4.143 0 7.5-3.357 7.5-7.5v-38.909l7.889 7.79c2.946 2.911 7.696 2.88 10.606-.067s2.88-7.695-.067-10.606l-20.658-20.4c-2.92-2.885-7.618-2.884-10.54.001l-20.656 20.4c-2.947 2.91-2.978 7.659-.066 10.605 2.91 2.948 7.659 2.977 10.605.066l7.888-7.789v38.909c-.001 4.142 3.357 7.5 7.499 7.5z" fill="#000000" data-original="#000000" style="" class=""/><path d="m144.214 446.723c4.143 0 7.5-3.357 7.5-7.5v-38.909l7.889 7.79c2.946 2.911 7.696 2.88 10.606-.067s2.88-7.695-.067-10.606l-20.658-20.4c-2.92-2.885-7.618-2.884-10.54.001l-20.656 20.4c-2.947 2.91-2.978 7.659-.066 10.605 2.909 2.948 7.659 2.977 10.605.066l7.888-7.789v38.909c-.001 4.142 3.356 7.5 7.499 7.5z" fill="#000000" data-original="#000000" style="" class=""/><path d="m219.366 457.767 5.523 5.675c10.509 10.797 27.846 11.035 38.648.521l29.661-28.87c6.022-5.86 8.046-14.776 5.156-22.714 0-.001-.001-.001-.001-.001-1.086-2.984-2.877-5.703-5.32-8.081-5.744-5.591-8.429-8.205-9.583-9.328-.012-.011-.022-.021-.033-.032l-19.88-19.35c-10.798-10.513-28.138-10.278-38.648.521l-5.523 5.675c-2.89 2.969-2.825 7.717.143 10.605l28.135 27.387-28.135 27.386c-2.968 2.889-3.032 7.637-.143 10.606zm44.262-32.618c1.45-1.411 2.269-3.35 2.269-5.374s-.818-3.963-2.269-5.374l-28.282-27.53.292-.3c4.744-4.872 12.566-4.979 17.438-.235l19.499 18.978c.012.013.025.025.038.037l9.96 9.695c2.976 2.896 2.572 6.956.165 9.298l-29.662 28.871c-4.898 4.768-12.692 4.638-17.438-.236l-.292-.3z" fill="#000000" data-original="#000000" style="" class=""/><path d="m486.515 0h-129.887c-4.143 0-7.5 3.357-7.5 7.5s3.357 7.5 7.5 7.5h129.887c.802 0 1.454.652 1.454 1.454v308.22c0 .802-.652 1.454-1.454 1.454h-144.771v-30.176h61.014c4.143 0 7.5-3.357 7.5-7.5s-3.357-7.5-7.5-7.5h-61.014v-62.971c0-.21-.025-.413-.031-.621h61.045c4.143 0 7.5-3.357 7.5-7.5s-3.357-7.5-7.5-7.5h-69.466c-2.944-1.937-6.46-3.073-10.241-3.073h-71.896v-182.833c0-.802.652-1.454 1.454-1.454h74.032c4.143 0 7.5-3.357 7.5-7.5s-3.357-7.5-7.5-7.5h-74.032c-9.073 0-16.454 7.381-16.454 16.454v182.833h-208.429c-10.308 0-18.694 8.387-18.694 18.694v206.248c0 4.143 3.357 7.5 7.5 7.5s7.5-3.357 7.5-7.5v-206.248c0-2.037 1.657-3.694 3.694-3.694h114.032v38.201c0 7.753 6.307 14.06 14.06 14.06h39.142c7.753 0 14.06-6.307 14.06-14.06v-38.201h114.032c2.036 0 3.693 1.657 3.693 3.694v275.324c0 2.037-1.657 3.694-3.693 3.694h-295.326c-2.037 0-3.694-1.657-3.694-3.694v-39.089c0-4.143-3.357-7.5-7.5-7.5s-7.5 3.357-7.5 7.5v39.089c0 10.308 8.387 18.694 18.694 18.694h295.325c10.308 0 18.693-8.387 18.693-18.694v-152.177h144.771c9.073 0 16.454-7.381 16.454-16.454v-308.22c0-9.073-7.381-16.454-16.454-16.454zm-292.496 251.548h-37.261v-37.261h37.261z" fill="#000000" data-original="#000000" style="" class=""/></g></g></g></svg>
