<?xml version="1.0" standalone="no"?>
<!DOCTYPE svg PUBLIC "-//W3C//DTD SVG 20010904//EN"
 "http://www.w3.org/TR/2001/REC-SVG-20010904/DTD/svg10.dtd">
<svg version="1.0" xmlns="http://www.w3.org/2000/svg"
 width="2133.000000pt" height="2133.000000pt" viewBox="0 0 2133.000000 2133.000000"
 preserveAspectRatio="xMidYMid meet">
<metadata>
Created by potrace 1.16, written by Peter Selinger 2001-2019
</metadata>
<g transform="translate(0.000000,2133.000000) scale(0.100000,-0.100000)"
fill="#000000" stroke="none">
<path d="M10060 21319 c-1399 -83 -2711 -419 -3970 -1014 -907 -429 -1753
-994 -2550 -1701 -187 -165 -649 -627 -814 -814 -999 -1126 -1716 -2354 -2176
-3730 -313 -935 -484 -1826 -540 -2820 -13 -226 -13 -924 0 -1150 88 -1552
495 -3032 1203 -4375 1509 -2862 4219 -4891 7364 -5515 509 -101 980 -160
1513 -190 226 -13 924 -13 1150 0 1486 84 2881 453 4190 1109 2950 1478 5062
4241 5700 7458 143 722 200 1316 200 2088 0 407 -8 604 -36 935 -115 1378
-528 2784 -1177 4015 -1510 2862 -4218 4891 -7364 5515 -509 101 -980 160
-1513 190 -203 11 -983 11 -1180 -1z m1280 -1823 c270 -24 608 -66 890 -112
133 -22 384 -77 590 -130 96 -25 204 -52 240 -61 123 -29 715 -231 870 -296
85 -36 184 -76 220 -90 63 -24 197 -87 445 -208 159 -77 345 -177 477 -255 59
-35 129 -76 155 -91 26 -14 93 -56 148 -92 55 -36 125 -80 155 -99 117 -72
546 -384 655 -477 33 -28 80 -66 105 -85 248 -189 831 -759 1074 -1049 21 -25
60 -71 87 -101 146 -166 509 -657 650 -880 210 -331 397 -662 516 -910 131
-275 157 -331 183 -395 16 -38 62 -153 104 -255 78 -194 260 -731 291 -860 10
-41 33 -131 51 -200 118 -457 197 -928 244 -1450 47 -530 39 -1149 -21 -1675
-56 -492 -118 -839 -223 -1245 -18 -69 -41 -159 -51 -200 -31 -129 -213 -666
-291 -860 -42 -102 -88 -216 -104 -255 -26 -64 -52 -120 -183 -395 -119 -248
-306 -579 -516 -910 -141 -223 -504 -714 -650 -880 -27 -30 -66 -76 -87 -101
-243 -290 -826 -860 -1074 -1049 -25 -19 -72 -57 -105 -85 -109 -93 -538 -405
-655 -477 -30 -19 -100 -63 -155 -99 -55 -36 -122 -78 -148 -92 -26 -15 -96
-56 -155 -91 -132 -78 -318 -178 -477 -255 -248 -121 -382 -184 -445 -208 -36
-14 -135 -54 -220 -90 -155 -65 -747 -267 -870 -296 -36 -9 -144 -36 -240 -61
-405 -104 -735 -162 -1220 -216 -348 -38 -489 -45 -935 -45 -446 0 -587 7
-935 45 -485 54 -815 112 -1220 216 -96 25 -204 52 -240 61 -123 29 -715 231
-870 296 -85 36 -184 76 -220 90 -63 24 -197 87 -445 208 -159 77 -345 177
-477 255 -59 35 -129 76 -155 91 -26 14 -93 56 -148 92 -55 36 -125 80 -155
99 -117 72 -546 384 -655 477 -33 28 -80 66 -105 85 -248 189 -831 759 -1074
1049 -21 25 -60 71 -87 101 -146 166 -509 657 -650 880 -210 331 -397 662
-516 910 -131 275 -157 331 -183 395 -16 39 -62 153 -104 255 -78 194 -260
731 -291 860 -10 41 -33 131 -51 200 -105 406 -167 753 -223 1245 -68 598 -68
1282 0 1880 56 495 117 836 223 1245 18 69 41 159 51 200 31 129 213 666 291
860 42 102 88 217 104 255 26 64 52 120 183 395 119 248 306 579 516 910 141
223 504 714 650 880 27 30 66 76 87 101 243 290 826 860 1074 1049 25 19 72
57 105 85 109 93 538 405 655 477 30 19 100 63 155 99 55 36 122 78 148 92 26
15 96 56 155 91 132 78 318 178 477 255 248 121 382 184 445 208 36 14 135 54
220 90 155 65 747 267 870 296 36 9 144 36 240 61 206 53 457 108 590 130 327
53 706 99 965 115 94 7 190 13 215 15 120 10 888 -4 1060 -18z"/>
<path d="M15105 15976 c-49 -13 -225 -76 -390 -139 -165 -63 -361 -138 -435
-167 -74 -28 -227 -87 -340 -130 -113 -43 -324 -124 -470 -180 -146 -56 -357
-137 -470 -180 -113 -43 -324 -124 -470 -180 -146 -56 -346 -132 -445 -170
-99 -38 -292 -112 -430 -165 -137 -53 -349 -134 -470 -180 -121 -46 -339 -129
-485 -185 -146 -56 -339 -130 -430 -165 -91 -35 -272 -104 -402 -154 -131 -50
-344 -132 -473 -181 -129 -50 -340 -130 -467 -179 -524 -201 -714 -274 -938
-359 -129 -50 -341 -131 -470 -180 -396 -152 -704 -270 -950 -364 -312 -119
-652 -249 -940 -360 -129 -49 -327 -125 -440 -168 -204 -78 -438 -167 -940
-360 -146 -56 -348 -133 -450 -171 -420 -159 -634 -297 -716 -465 -23 -47 -26
-63 -23 -138 4 -79 6 -87 44 -142 49 -71 131 -133 250 -190 83 -39 147 -61
530 -179 77 -24 313 -97 525 -163 445 -139 618 -193 820 -255 759 -236 1036
-322 1100 -343 41 -13 80 -24 88 -24 7 0 54 26 105 58 51 33 551 346 1112 697
1302 814 2273 1422 3700 2315 627 393 1314 823 1527 956 410 256 460 281 584
291 79 6 138 -13 150 -49 10 -34 -5 -81 -39 -120 -17 -20 -192 -179 -387 -354
-427 -382 -621 -557 -675 -605 -311 -280 -331 -299 -1730 -1554 -264 -236
-682 -612 -930 -835 -611 -549 -944 -848 -1370 -1230 -198 -177 -368 -330
-378 -339 -19 -18 -21 -38 -71 -761 -9 -118 -22 -310 -31 -426 -8 -116 -19
-276 -25 -355 -5 -79 -14 -205 -20 -279 -6 -74 -19 -265 -30 -425 -11 -159
-22 -321 -25 -360 -3 -38 -10 -126 -15 -195 -5 -69 -10 -142 -10 -162 l0 -38
49 0 c123 0 275 53 381 133 30 22 165 147 300 277 300 287 557 534 970 928
l315 300 30 -22 c17 -13 316 -232 665 -488 349 -255 831 -608 1070 -783 239
-175 498 -365 575 -421 77 -56 248 -181 380 -278 261 -191 338 -233 515 -281
310 -82 554 47 692 366 55 128 62 160 229 939 256 1204 689 3230 710 3330 11
52 24 113 29 135 5 22 15 72 23 110 9 39 23 104 31 145 15 67 452 2116 491
2300 9 41 20 93 25 115 5 22 118 549 252 1170 l242 1130 4 205 c4 234 -4 282
-66 410 -43 87 -130 180 -207 222 -131 70 -298 86 -460 44z"/>
</g>
</svg>
